<svg width="242" height="300" viewBox="0 0 242 300" fill="none" xmlns="http://www.w3.org/2000/svg">
<path d="M229.511 258.243C229.511 202.732 214.425 138.093 174.028 97.6958C133.893 57.5607 69.7923 43.4866 14.7555 43.4866C-38.7459 43.4866 -91.2849 59.2944 -129.722 97.6958C-171.441 139.373 -200 198.812 -200 258.243C-200 316.33 -169.496 361.673 -129.722 401.447C-89.6928 441.476 -43.791 473 14.7555 473C74.4058 473 132.379 443.132 174.028 401.447C212.408 363.032 229.511 312.007 229.511 258.243Z" stroke="#B9F5DF" stroke-width="0.5" stroke-miterlimit="10"/>
<path d="M19.6874 447.696C-27.9338 447.463 -71.4722 411.885 -106.604 376.717C-141.036 342.25 -175.475 300.027 -175.545 252.462C-175.623 199.866 -146.223 140.166 -106.597 100.583C-72.76 66.7952 -24.0774 57.0091 19.6874 57.2284C67.1955 57.462 131.672 62.8326 169.563 100.555C207.774 138.61 214.68 203.949 214.92 252.462C215.14 296.68 203.011 343.191 169.535 376.717C130.143 416.159 71.4764 447.944 19.6874 447.696Z" stroke="#B9F5DF" stroke-width="0.5" stroke-miterlimit="10"/>
<path d="M208.594 236.987C208.184 193.965 203.995 133.55 169.047 98.7714C134.58 64.4741 74.5755 61.5587 32.884 61.2686C-56.8109 60.6601 -143.548 152.669 -142.819 236.98C-142.473 278.021 -110.001 316.804 -79.4894 347.309C-48.2349 378.571 -8.10708 412.182 32.884 412.691C112.948 413.689 209.443 325.734 208.594 236.987Z" stroke="#B9F5DF" stroke-width="0.5" stroke-miterlimit="10"/>
<path d="M52.5128 370.164C16.0928 370.101 -20.8154 341.047 -48.5037 313.358C-75.9796 285.875 -103.371 250.346 -103.696 213.976C-104.305 140.06 -27.6933 57.0514 52.4915 57.7873C89.6474 58.1341 141.946 62.0329 172.38 92.4597C203.139 123.212 208.318 175.794 208.679 213.976C209.443 293.27 123.796 370.292 52.5128 370.164Z" stroke="#B9F5DF" stroke-width="0.5" stroke-miterlimit="10"/>
<path d="M213.385 185.594C213.236 151.566 205.707 108.395 179.272 81.9943C152.836 55.5938 110.387 49.2749 76.6702 48.9282C4.80672 48.2206 -60.1294 117.905 -59.9879 185.594C-59.8605 247.353 15.8735 322.161 76.6702 322.253C142.42 322.387 213.725 256.474 213.385 185.594Z" stroke="#B9F5DF" stroke-width="0.5" stroke-miterlimit="10"/>
<path d="M103.679 271.129C45.0832 271.129 -13.4351 212.886 -13.4634 153.986C-13.4634 91.7169 40.4767 36.8142 103.679 36.8496C169.747 36.8496 220.779 87.7473 220.815 153.986C220.85 216.849 165.12 271.157 103.679 271.129Z" stroke="#B9F5DF" stroke-width="0.5" stroke-miterlimit="10"/>
<path d="M229.157 121.323C229.115 69.866 183.411 23.4546 131.509 23.7093C80.2436 23.964 33.8607 68.6561 33.896 121.358C33.896 173.459 79.4935 218.95 131.544 219.007C184.02 218.972 229.193 172.518 229.157 121.323Z" stroke="#B9F5DF" stroke-width="0.5" stroke-miterlimit="10"/>
<path d="M158.461 167.854C116.218 168.201 80.5195 131.901 80.3638 89.7637C80.2082 48.7158 120.435 11.0503 158.461 11.6446C195.256 12.2461 236.396 51.1924 236.552 89.7424C236.714 129.106 198.915 167.522 158.461 167.854Z" stroke="#B9F5DF" stroke-width="0.5" stroke-miterlimit="10"/>
<path d="M241.172 61.4527C240.903 34.946 208.503 3.14649 182.605 2.88468C156.02 2.61579 123.768 31.401 124.037 61.4527C124.313 93.3301 150.975 119.745 182.605 120.021C212.656 120.29 241.455 88.8864 241.172 61.4527Z" stroke="#B9F5DF" stroke-width="0.5" stroke-miterlimit="10"/>
<path d="M202.127 77.6072C180.821 77.9398 163.209 59.6837 163.082 38.5618C162.947 18.5297 184.267 -1.06375 202.127 -0.483518C218.826 0.0401059 240.974 20.5676 241.172 38.5618C241.384 57.476 221.65 77.3029 202.127 77.6072Z" stroke="#B9F5DF" stroke-width="0.5" stroke-miterlimit="10"/>
<path d="M234.719 23.2423C234.577 13.4987 223.9 4.13714 215.196 3.71965C205.743 3.23849 195.716 13.0387 195.674 23.2423C195.624 33.6865 204.512 43.2816 215.196 42.765C224.89 42.3051 234.86 33.3398 234.719 23.2423Z" stroke="#B9F5DF" stroke-width="0.5" stroke-miterlimit="10"/>
<path d="M219.958 17.6594C219.534 52.3955 197.315 89.7285 182.59 120.042C162.07 162.272 139.731 203.624 117.612 245.033C94.7634 287.793 71.717 330.489 50.5811 374.141C36.3372 403.655 15.4702 439.325 14.7555 473" stroke="#B9F5DF" stroke-width="0.5" stroke-miterlimit="10"/>
<path d="M219.958 17.6594C237.45 40.0054 223.553 83.4662 217.779 107.723C208.8 145.452 197.153 182.509 186.447 219.771C168.976 280.625 144.288 352.241 157.81 416.173" stroke="#B9F5DF" stroke-width="0.5" stroke-miterlimit="10"/>
<path d="M219.958 17.6594C243.309 23.3202 240.726 55.5868 238.922 73.7367C236.021 102.925 228.924 131.64 222.647 160.234C216.831 186.733 210.738 213.481 208.432 240.568C206.797 259.786 204.894 291.982 225.414 302.695" stroke="#B9F5DF" stroke-width="0.5" stroke-miterlimit="10"/>
<path d="M219.958 17.6592C238.66 11.4394 237.103 25.2164 233.19 39.6798C228.485 57.0938 221.253 73.8781 214.942 90.7331C211.474 99.9885 183.595 165.42 212.387 160.913" stroke="#B9F5DF" stroke-width="0.5" stroke-miterlimit="10"/>
<path d="M219.958 17.6594C226.751 1.26434 219.583 4.21504 208.163 11.383C193.912 20.2917 180.871 31.5072 167.54 41.7108C156.749 49.9684 145.958 58.6932 134.113 65.3941C130.476 67.4603 111.774 76.5601 118.015 62.3656" stroke="#B9F5DF" stroke-width="0.5" stroke-miterlimit="10"/>
<path d="M219.959 17.6592C215.02 -47.0862 5.96021 106.881 -18.1476 45.666" stroke="#B9F5DF" stroke-width="0.5" stroke-miterlimit="10"/>
<path d="M219.958 17.6594C200.648 -1.36089 159.678 15.5366 138.585 22.6763C106.269 33.6724 74.9011 47.3503 43.2291 60.0093C-7.35696 80.2254 -72.5478 110.794 -128.349 96.3445" stroke="#B9F5DF" stroke-width="0.5" stroke-miterlimit="10"/>
<path d="M219.958 17.6592C188.895 12.3876 149.659 37.8895 123.994 51.808C85.9326 72.4487 49.0739 95.3183 12.1232 117.785C-25.4572 140.633 -63.0589 163.658 -102.055 184.044C-130.075 198.692 -163.255 217.259 -195.783 218.009" stroke="#B9F5DF" stroke-width="0.5" stroke-miterlimit="10"/>
<path d="M219.958 17.6594C185.675 33.0568 155.567 62.9458 127.192 86.9405C90.9494 117.573 55.3502 148.962 19.5954 180.16C-43.8194 235.487 -107.029 295.534 -178.694 340.233" stroke="#B9F5DF" stroke-width="0.5" stroke-miterlimit="10"/>
<path d="M219.958 17.6594C172.288 90.896 113.677 158.189 60.0132 227.017C7.32561 294.635 -46.0413 361.97 -95.9481 431.712" stroke="#B9F5DF" stroke-width="0.5" stroke-miterlimit="10"/>
</svg>
