<svg width="237" height="300" viewBox="0 0 237 300" fill="none" xmlns="http://www.w3.org/2000/svg">
<path d="M430.511 85.7395C430.511 30.2283 415.425 -34.411 375.028 -74.8079C334.893 -114.943 270.792 -129.017 215.755 -129.017C162.254 -129.017 109.715 -113.209 71.2785 -74.8079C29.5586 -33.1302 1 26.3082 1 85.7395C1 143.826 31.5045 189.169 71.2785 228.944C111.307 268.973 157.209 300.496 215.755 300.496C275.406 300.496 333.379 270.628 375.028 228.944C413.408 190.528 430.511 139.503 430.511 85.7395Z" stroke="#B9F5DF" stroke-width="0.5" stroke-miterlimit="10"/>
<path d="M220.687 275.192C173.066 274.959 129.528 239.38 94.3956 204.213C59.964 169.746 25.5253 127.523 25.4545 79.9582C25.3767 27.3623 54.7773 -32.3379 94.4027 -71.9211C128.24 -105.709 176.923 -115.495 220.687 -115.276C268.195 -115.042 332.672 -109.672 370.563 -71.9494C408.774 -33.8946 415.68 31.4451 415.92 79.9582C416.14 124.176 404.011 170.687 370.535 204.213C331.143 243.654 272.476 275.44 220.687 275.192Z" stroke="#B9F5DF" stroke-width="0.5" stroke-miterlimit="10"/>
<path d="M409.594 64.483C409.184 21.4609 404.995 -38.9539 370.047 -73.7325C335.58 -108.03 275.576 -110.945 233.884 -111.235C144.189 -111.844 57.4519 -19.8346 58.1807 64.476C58.5274 105.517 90.999 144.3 121.511 174.805C152.765 206.067 192.893 239.678 233.884 240.187C313.948 241.185 410.443 153.23 409.594 64.483Z" stroke="#B9F5DF" stroke-width="0.5" stroke-miterlimit="10"/>
<path d="M253.513 197.66C217.093 197.597 180.185 168.543 152.496 140.854C125.02 113.371 97.6293 77.8423 97.3038 41.4717C96.6952 -32.4442 173.307 -115.453 253.491 -114.717C290.647 -114.37 342.946 -110.471 373.38 -80.0444C404.139 -49.2921 409.318 3.28962 409.679 41.4717C410.443 120.765 324.796 197.788 253.513 197.66Z" stroke="#B9F5DF" stroke-width="0.5" stroke-miterlimit="10"/>
<path d="M414.385 13.0901C414.236 -20.9384 406.707 -64.109 380.272 -90.5096C353.836 -116.91 311.387 -123.229 277.67 -123.576C205.807 -124.283 140.871 -54.5989 141.012 13.0901C141.139 74.8495 216.873 149.657 277.67 149.749C343.42 149.883 414.725 83.9704 414.385 13.0901Z" stroke="#B9F5DF" stroke-width="0.5" stroke-miterlimit="10"/>
<path d="M304.679 98.625C246.083 98.625 187.565 40.3825 187.537 -18.5182C187.537 -80.787 241.477 -135.69 304.679 -135.654C370.747 -135.654 421.779 -84.7566 421.815 -18.5182C421.85 44.345 366.12 98.6533 304.679 98.625Z" stroke="#B9F5DF" stroke-width="0.5" stroke-miterlimit="10"/>
<path d="M430.157 -51.1814C430.115 -102.638 384.411 -149.05 332.509 -148.795C281.244 -148.54 234.861 -103.848 234.896 -51.146C234.896 0.954547 280.494 46.4461 332.544 46.5028C385.02 46.4674 430.193 0.0134377 430.157 -51.1814Z" stroke="#B9F5DF" stroke-width="0.5" stroke-miterlimit="10"/>
<path d="M420.958 -154.845C420.534 -120.109 398.315 -82.7757 383.59 -52.4621C363.07 -10.2325 340.731 31.1196 318.612 72.5284C295.763 115.289 272.717 157.985 251.581 201.637C237.337 231.151 216.47 266.821 215.755 300.496" stroke="#B9F5DF" stroke-width="0.5" stroke-miterlimit="10"/>
<path d="M420.958 -154.845C389.895 -160.116 350.659 -134.614 324.994 -120.696C286.933 -100.055 250.074 -77.1856 213.123 -54.7193C175.543 -31.8709 137.941 -8.84559 98.9455 11.5404C70.9247 26.1877 37.7455 44.7551 5.21729 45.5052" stroke="#B9F5DF" stroke-width="0.5" stroke-miterlimit="10"/>
<path d="M420.958 -154.845C386.675 -139.447 356.567 -109.558 328.192 -85.5636C291.949 -54.9316 256.35 -23.5425 220.595 7.65558C157.181 62.9828 93.971 123.03 22.3057 167.729" stroke="#B9F5DF" stroke-width="0.5" stroke-miterlimit="10"/>
<path d="M420.958 -154.845C373.287 -81.6081 314.677 -14.3154 261.013 54.5129C208.326 122.131 154.959 189.466 105.052 259.207" stroke="#B9F5DF" stroke-width="0.5" stroke-miterlimit="10"/>
</svg>
