<svg width="16" height="16" viewBox="0 0 16 16" fill="none" xmlns="http://www.w3.org/2000/svg">
<path d="M12.224 12.226H10.447V9.44147C10.447 8.77747 10.4335 7.923 9.52097 7.923C8.5945 7.923 8.45297 8.64553 8.45297 9.39247V12.226H6.67597V6.5H8.38297V7.28047H8.40597C8.6445 6.83047 9.2245 6.3555 10.091 6.3555C11.8915 6.3555 12.2245 7.54053 12.2245 9.083L12.224 12.226ZM4.66899 5.7165C4.09699 5.7165 3.63749 5.2535 3.63749 4.684C3.63749 4.115 4.09749 3.6525 4.66899 3.6525C5.23899 3.6525 5.70099 4.115 5.70099 4.684C5.70099 5.2535 5.23849 5.7165 4.66899 5.7165ZM5.55999 12.226H3.77799V6.5H5.55999V12.226ZM13.113 2H2.88599C2.39649 2 2.00049 2.387 2.00049 2.8645V13.1355C2.00049 13.6135 2.39649 14 2.88599 14H13.1115C13.6005 14 14.0005 13.6135 14.0005 13.1355V2.8645C14.0005 2.387 13.6005 2 13.1115 2H13.113Z" fill="#00391F"/>
</svg>
