<svg width="12" height="15" viewBox="0 0 12 15" fill="none" xmlns="http://www.w3.org/2000/svg">
<path d="M11.3332 14.6665H9.99984V13.3332C9.99984 12.2286 9.10444 11.3332 7.99984 11.3332H3.99984C2.89527 11.3332 1.99984 12.2286 1.99984 13.3332V14.6665H0.666504V13.3332C0.666504 11.4922 2.15889 9.99984 3.99984 9.99984H7.99984C9.84077 9.99984 11.3332 11.4922 11.3332 13.3332V14.6665ZM5.99984 8.6665C3.7907 8.6665 1.99984 6.87564 1.99984 4.6665C1.99984 2.45736 3.7907 0.666504 5.99984 0.666504C8.20897 0.666504 9.99984 2.45736 9.99984 4.6665C9.99984 6.87564 8.20897 8.6665 5.99984 8.6665ZM5.99984 7.33317C7.47257 7.33317 8.6665 6.13926 8.6665 4.6665C8.6665 3.19374 7.47257 1.99984 5.99984 1.99984C4.52708 1.99984 3.33317 3.19374 3.33317 4.6665C3.33317 6.13926 4.52708 7.33317 5.99984 7.33317Z" fill="#00391F"/>
</svg>
