<svg width="14" height="12" viewBox="0 0 14 12" fill="none" xmlns="http://www.w3.org/2000/svg">
<path d="M7.16276 0.666504C7.51883 0.668464 8.4097 0.677077 9.35623 0.714991L9.69183 0.729624C10.6448 0.774744 11.597 0.851824 12.0693 0.983504C12.6992 1.16047 13.1944 1.67684 13.3617 2.33138C13.6282 3.37078 13.6615 5.39944 13.6656 5.89037L13.6662 5.9921V5.99924C13.6662 5.99924 13.6662 6.0017 13.6662 6.00644L13.6656 6.10817C13.6615 6.5991 13.6282 8.62777 13.3617 9.66717C13.192 10.3241 12.6969 10.8405 12.0693 11.015C11.597 11.1467 10.6448 11.2238 9.69183 11.2689L9.35623 11.2835C8.4097 11.3214 7.51883 11.33 7.16276 11.332L7.0065 11.3326H6.99956C6.99956 11.3326 6.99723 11.3326 6.99263 11.3326L6.8365 11.332C6.0829 11.3279 2.93198 11.2938 1.92984 11.015C1.2999 10.838 0.804776 10.3217 0.637409 9.66717C0.370963 8.62777 0.337656 6.5991 0.333496 6.10817V5.89037C0.337656 5.39944 0.370963 3.37078 0.637409 2.33138C0.807096 1.67441 1.30222 1.15805 1.92984 0.983504C2.93198 0.704657 6.0829 0.670651 6.8365 0.666504H7.16276ZM5.66624 3.66593V8.33257L9.66623 5.99924L5.66624 3.66593Z" fill="#00391F"/>
</svg>
